<svg xmlns="http://www.w3.org/2000/svg" xmlns:xlink="http://www.w3.org/1999/xlink" version="1.1" width="311.89pt" height="436.5594pt" viewBox="0 0 311.89 436.5594">
<g id="layer_1" data-name="">
<path transform="matrix(1,0,0,-1,1,435.5594)" stroke-width="15.9999" stroke-linecap="butt" stroke-miterlimit="22.925585" stroke-linejoin="miter" fill="none" stroke="rgb(244,202,88)" d="M152.3945 324.6537C232.1416 324.6537 296.7891 259.3644 296.7891 178.8259 296.7891 98.2874 232.1416 32.9981 152.3945 32.9981 72.6474 32.9981 7.9999 98.2874 7.9999 178.8259 7.9999 259.3644 72.6474 324.6537 152.3945 324.6537Z"/>
<path transform="matrix(1,0,0,-1,1,435.5594)" stroke-width="15.9999" stroke-linecap="butt" stroke-miterlimit="22.925585" stroke-linejoin="miter" fill="none" stroke="rgb(244,202,88)" d="M154.5443 240.0951C187.5909 240.0951 214.3803 213.3057 214.3803 180.2591 214.3803 147.2125 187.5909 120.4231 154.5443 120.4231 121.4977 120.4231 94.7083 147.2125 94.7083 180.2591 94.7083 213.3057 121.4977 240.0951 154.5443 240.0951Z"/>
<path transform="matrix(1,0,0,-1,1,435.5594)" d="M202.6809 135.4507 202.7789 41.8218 151.7122 114.3315Z" fill="rgb(244,202,88)" fill-rule="evenodd"/>
<path transform="matrix(1,0,0,-1,1,435.5594)" stroke-width=".216" stroke-linecap="butt" stroke-miterlimit="22.925585" stroke-linejoin="miter" fill="none" stroke="rgb(244,202,88)" d="M202.6809 135.4507 202.7789 41.8218 151.7122 114.3315Z"/>
<path transform="matrix(1,0,0,-1,1,435.5594)" d="M160.0084 245.2904 218.6799 303.9619 210.1703 215.7307Z" fill="rgb(244,202,88)" fill-rule="evenodd"/>
<path transform="matrix(1,0,0,-1,1,435.5594)" stroke-width=".216" stroke-linecap="butt" stroke-miterlimit="22.925585" stroke-linejoin="miter" fill="none" stroke="rgb(244,202,88)" d="M160.0084 245.2904 218.6799 303.9619 210.1703 215.7307Z"/>
<path transform="matrix(1,0,0,-1,1,435.5594)" d="M190.4638 235.885 207.9309 271.715 203.0043 226.0318Z" fill="#ffffff" fill-rule="evenodd"/>
<path transform="matrix(1,0,0,-1,1,435.5594)" stroke-width=".216" stroke-linecap="butt" stroke-miterlimit="22.925585" stroke-linejoin="miter" fill="none" stroke="#bcbec0" d="M190.4638 235.885 207.9309 271.715 203.0043 226.0318Z"/>
<path transform="matrix(1,0,0,-1,1,435.5594)" d="M205.645 219.534 288.5987 221.3626 219.172 167.7311Z" fill="rgb(244,202,88)" fill-rule="evenodd"/>
<path transform="matrix(1,0,0,-1,1,435.5594)" stroke-width=".216" stroke-linecap="butt" stroke-miterlimit="22.925585" stroke-linejoin="miter" fill="none" stroke="rgb(244,202,88)" d="M205.645 219.534 288.5987 221.3626 219.172 167.7311Z"/>
<path transform="matrix(1,0,0,-1,1,435.5594)" d="M221.1469 193.6372 259.1898 207.1236 221.7674 179.4764Z" fill="#ffffff" fill-rule="evenodd"/>
<path transform="matrix(1,0,0,-1,1,435.5594)" stroke-width=".216" stroke-linecap="butt" stroke-miterlimit="22.925585" stroke-linejoin="miter" fill="none" stroke="#bcbec0" d="M221.1469 193.6372 259.1898 207.1236 221.7674 179.4764Z"/>
<path transform="matrix(1,0,0,-1,1,435.5594)" d="M222.3853 174.4654 282.9937 112.3353 196.0146 129.6587Z" fill="rgb(244,202,88)" fill-rule="evenodd"/>
<path transform="matrix(1,0,0,-1,1,435.5594)" stroke-width=".216" stroke-linecap="butt" stroke-miterlimit="22.925585" stroke-linejoin="miter" fill="none" stroke="rgb(244,202,88)" d="M222.3853 174.4654 282.9937 112.3353 196.0146 129.6587Z"/>
<path transform="matrix(1,0,0,-1,1,435.5594)" d="M211.0195 144.8113 252.97 125.2278 201.7037 134.7403Z" fill="#ffffff" fill-rule="evenodd"/>
<path transform="matrix(1,0,0,-1,1,435.5594)" stroke-width=".216" stroke-linecap="butt" stroke-miterlimit="22.925585" stroke-linejoin="miter" fill="none" stroke="#bcbec0" d="M211.0195 144.8113 252.97 125.2278 201.7037 134.7403Z"/>
<path transform="matrix(1,0,0,-1,1,435.5594)" d="M158.8003 112.4203 95.2021 47.4786 109.982 133.4704Z" fill="rgb(244,202,88)" fill-rule="evenodd"/>
<path transform="matrix(1,0,0,-1,1,435.5594)" stroke-width=".216" stroke-linecap="butt" stroke-miterlimit="22.925585" stroke-linejoin="miter" fill="none" stroke="rgb(244,202,88)" d="M158.8003 112.4203 95.2021 47.4786 109.982 133.4704Z"/>
<path transform="matrix(1,0,0,-1,1,435.5594)" d="M126.5533 116.8991 105.5032 75.6947 113.565 123.1693Z" fill="#ffffff" fill-rule="evenodd"/>
<path transform="matrix(1,0,0,-1,1,435.5594)" stroke-width=".216" stroke-linecap="butt" stroke-miterlimit="22.925585" stroke-linejoin="miter" fill="none" stroke="#bcbec0" d="M126.5533 116.8991 105.5032 75.6947 113.565 123.1693Z"/>
<path transform="matrix(1,0,0,-1,1,435.5594)" d="M110.0285 129.6672 18.5649 124.2556 90.6792 181.47Z" fill="rgb(244,202,88)" fill-rule="evenodd"/>
<path transform="matrix(1,0,0,-1,1,435.5594)" stroke-width=".216" stroke-linecap="butt" stroke-miterlimit="22.925585" stroke-linejoin="miter" fill="none" stroke="rgb(244,202,88)" d="M110.0285 129.6672 18.5649 124.2556 90.6792 181.47Z"/>
<path transform="matrix(1,0,0,-1,1,435.5594)" d="M91.8394 155.1161 46.1823 137.5991 88.0838 169.7247Z" fill="#ffffff" fill-rule="evenodd"/>
<path transform="matrix(1,0,0,-1,1,435.5594)" stroke-width=".216" stroke-linecap="butt" stroke-miterlimit="22.925585" stroke-linejoin="miter" fill="none" stroke="#bcbec0" d="M91.8394 155.1161 46.1823 137.5991 88.0838 169.7247Z"/>
<path transform="matrix(1,0,0,-1,1,435.5594)" d="M90.1531 179.2145 26.4095 241.3446 114.2841 227.1563Z" fill="rgb(244,202,88)" fill-rule="evenodd"/>
<path transform="matrix(1,0,0,-1,1,435.5594)" stroke-width=".216" stroke-linecap="butt" stroke-miterlimit="22.925585" stroke-linejoin="miter" fill="none" stroke="rgb(244,202,88)" d="M90.1531 179.2145 26.4095 241.3446 114.2841 227.1563Z"/>
<path transform="matrix(1,0,0,-1,1,435.5594)" d="M98.3837 208.8686 56.4333 228.452 107.6995 218.9395Z" fill="#ffffff" fill-rule="evenodd"/>
<path transform="matrix(1,0,0,-1,1,435.5594)" stroke-width=".216" stroke-linecap="butt" stroke-miterlimit="22.925585" stroke-linejoin="miter" fill="none" stroke="#bcbec0" d="M98.3837 208.8686 56.4333 228.452 107.6995 218.9395Z"/>
<path transform="matrix(1,0,0,-1,1,435.5594)" d="M176.2849 117.2443 189.9173 68.2758 161.6168 113.1137Z" fill="#ffffff" fill-rule="evenodd"/>
<path transform="matrix(1,0,0,-1,1,435.5594)" stroke-width=".216" stroke-linecap="butt" stroke-miterlimit="22.925585" stroke-linejoin="miter" fill="none" stroke="#bcbec0" d="M176.2849 117.2443 189.9173 68.2758 161.6168 113.1137Z"/>
<path transform="matrix(1,0,0,-1,1,435.5594)" d="M112.47 232.2598 110.6776 315.2143 160.4523 243.5632Z" fill="rgb(244,202,88)" fill-rule="evenodd"/>
<path transform="matrix(1,0,0,-1,1,435.5594)" stroke-width=".216" stroke-linecap="butt" stroke-miterlimit="22.925585" stroke-linejoin="miter" fill="none" stroke="rgb(244,202,88)" d="M112.47 232.2598 110.6776 315.2143 160.4523 243.5632Z"/>
<path transform="matrix(1,0,0,-1,1,435.5594)" d="M138.0478 244.167 124.5779 282.5416 153.1865 247.3858Z" fill="#ffffff" fill-rule="evenodd"/>
<path transform="matrix(1,0,0,-1,1,435.5594)" stroke-width=".216" stroke-linecap="butt" stroke-miterlimit="22.925585" stroke-linejoin="miter" fill="none" stroke="#bcbec0" d="M138.0478 244.167 124.5779 282.5416 153.1865 247.3858Z"/>
<path transform="matrix(1,0,0,-1,1,435.5594)" stroke-width="2.0001" stroke-linecap="butt" stroke-miterlimit="22.925585" stroke-linejoin="miter" fill="none" stroke="rgb(244,202,88)" d="M206.5873 192.8891 106.7114 157.0592"/>
<path transform="matrix(1,0,0,-1,1,435.5594)" stroke-width="2.0001" stroke-linecap="butt" stroke-miterlimit="22.925585" stroke-linejoin="miter" fill="none" stroke="rgb(244,202,88)" d="M137.6147 231.8542 174.3403 129.7389"/>
<path transform="matrix(1,0,0,-1,1,435.5594)" stroke-width="2.0001" stroke-linecap="butt" stroke-miterlimit="22.925585" stroke-linejoin="miter" fill="none" stroke="rgb(244,202,88)" d="M105.3677 201.8466 203.0043 153.9241"/>
<path transform="matrix(1,0,0,-1,1,435.5594)" stroke-width="2.0001" stroke-linecap="butt" stroke-miterlimit="22.925585" stroke-linejoin="miter" fill="none" stroke="rgb(244,202,88)" d="M183.2978 226.0318 135.8232 131.5304"/>
<path transform="matrix(1,0,0,-1,1,435.5594)" d="M157.9929 183.0359C161.5796 183.0359 164.4871 180.1284 164.4871 176.5417 164.4871 172.9551 161.5796 170.0476 157.9929 170.0476 154.4063 170.0476 151.4988 172.9551 151.4988 176.5417 151.4988 180.1284 154.4063 183.0359 157.9929 183.0359Z" fill="rgb(244,202,88)" fill-rule="evenodd"/>
<path transform="matrix(1,0,0,-1,1,435.5594)" stroke-width=".216" stroke-linecap="butt" stroke-miterlimit="22.925585" stroke-linejoin="miter" fill="none" stroke="rgb(244,202,88)" d="M157.9929 183.0359C161.5796 183.0359 164.4871 180.1284 164.4871 176.5417 164.4871 172.9551 161.5796 170.0476 157.9929 170.0476 154.4063 170.0476 151.4988 172.9551 151.4988 176.5417 151.4988 180.1284 154.4063 183.0359 157.9929 183.0359Z"/>
<path transform="matrix(1,0,0,-1,1,435.5594)" stroke-width="2.0001" stroke-linecap="butt" stroke-miterlimit="22.925585" stroke-linejoin="miter" fill="none" stroke="rgb(244,202,88)" d="M259.8843 268.132 207.483 218.418"/>
<path transform="matrix(1,0,0,-1,1,435.5594)" stroke-width="2.0001" stroke-linecap="butt" stroke-miterlimit="22.925585" stroke-linejoin="miter" fill="none" stroke="rgb(244,202,88)" d="M164.0392 319.6375 161.7999 247.0819"/>
<path transform="matrix(1,0,0,-1,1,435.5594)" stroke-width="2.0001" stroke-linecap="butt" stroke-miterlimit="22.925585" stroke-linejoin="miter" fill="none" stroke="rgb(244,202,88)" d="M61.4761 284.2554 112.0859 228.2712"/>
<path transform="matrix(1,0,0,-1,1,435.5594)" stroke-width="2.0001" stroke-linecap="butt" stroke-miterlimit="22.925585" stroke-linejoin="miter" fill="none" stroke="rgb(244,202,88)" d="M10.4185 186.171 89.6922 180.3487"/>
<path transform="matrix(1,0,0,-1,1,435.5594)" stroke-width="2.0001" stroke-linecap="butt" stroke-miterlimit="22.925585" stroke-linejoin="miter" fill="none" stroke="rgb(244,202,88)" d="M297.5057 166.4646 220.0235 171.8391"/>
<path transform="matrix(1,0,0,-1,1,435.5594)" stroke-width="2.0001" stroke-linecap="butt" stroke-miterlimit="22.925585" stroke-linejoin="miter" fill="none" stroke="rgb(244,202,88)" d="M196.734 133.3219 247.3438 72.8589"/>
<path transform="matrix(1,0,0,-1,1,435.5594)" stroke-width="2.126" stroke-linecap="butt" stroke-miterlimit="22.925585" stroke-linejoin="miter" fill="none" stroke="rgb(244,202,88)" d="M156.8733 119.8857 151.0509 37.029"/>
<path transform="matrix(1,0,0,-1,1,435.5594)" stroke-width="2.0001" stroke-linecap="butt" stroke-miterlimit="22.925585" stroke-linejoin="miter" fill="none" stroke="rgb(244,202,88)" d="M112.0859 134.6655 53.4144 79.1291"/>
<path transform="matrix(1,0,0,-1,1,435.5594)" d="M64.1633 32.5502C66.5515 10.1568 79.6893 4.4841 103.5763 15.531 88.6133-13.0473 52.1167 1.2648 64.1633 32.5502Z" fill="rgb(244,202,88)" fill-rule="evenodd"/>
<path transform="matrix(1,0,0,-1,1,435.5594)" stroke-width=".216" stroke-linecap="butt" stroke-miterlimit="22.925585" stroke-linejoin="miter" fill="none" stroke="rgb(244,202,88)" d="M64.1633 32.5502C66.5515 10.1568 79.6893 4.4841 103.5763 15.531 88.6133-13.0473 52.1167 1.2648 64.1633 32.5502Z"/>
<path transform="matrix(1,0,0,-1,1,435.5594)" d="M284.3263 434.0925C267.1829 421.9917 255.4123 407.2048 247.3172 390.5793 246.8061 389.0778 244.9511 389.0132 244.4394 391.3931 247.7906 408.0421 229.087 421.4999 210.6326 408.8361 204.5917 404.691 197.0646 382.9456 215.547 377.5861 212.7404 382.6434 211.6434 387.8184 213.6467 391.138 216.9853 396.671 226.171 397.607 230.1211 388.3249 231.1546 384.5557 229.8538 346.5496 220.1494 352.2733 218.6768 354.9365 214.558 355.9323 212.171 354.7174 209.7839 353.5021 209.1274 350.0751 207.1094 350.7392 198.6744 358.6 189.4371 352.7124 193.5581 341.7902 198.2072 336.2383 205.5665 335.3672 214.78 337.6993 214.3619 344.1317 221.9839 344.1317 222.7062 337.6993L210.9447 316.7331 235.7461 306.5057V311.108L243.161 325.8488C245.6331 329.7022 251.9952 328.3682 250.5759 321.8468 245.9897 313.1039 261.4992 304.2961 271.542 310.5967 277.5243 318.85 274.945 322.537 268.4738 324.148 263.0829 324.326 261.4785 325.749 263.9716 329.6619 265.25 336.3058 252.8334 337.5028 260.8033 340.2561 267.8774 348.878 274.9516 356.8561 282.0251 361.7337 288.284 368.1558 296.1153 364.0779 297.2962 358.848 298.2146 354.7797 294.3731 350.0138 287.3945 348.9494 291.6343 340.0965 310.2233 347.7591 309.6391 365.5689 308.9262 382.9 280.8536 392.3569 276.1444 377.5861 274.1788 375.603 272.4914 375.6886 272.7522 377.8418 281.6374 391.3143 285.495 410.0647 284.3263 434.0925Z" fill="rgb(244,202,88)" fill-rule="evenodd"/>
<path transform="matrix(1,0,0,-1,1,435.5594)" stroke-width=".5" stroke-linecap="butt" stroke-miterlimit="22.925585" stroke-linejoin="miter" fill="none" stroke="rgb(244,202,88)" d="M284.3263 434.0925C267.1829 421.9917 255.4123 407.2048 247.3172 390.5793 246.8061 389.0778 244.9511 389.0132 244.4394 391.3931 247.7906 408.0421 229.087 421.4999 210.6326 408.8361 204.5917 404.691 197.0646 382.9456 215.547 377.5861 212.7404 382.6434 211.6434 387.8184 213.6467 391.138 216.9853 396.671 226.171 397.607 230.1211 388.3249 231.1546 384.5557 229.8538 346.5496 220.1494 352.2733 218.6768 354.9365 214.558 355.9323 212.171 354.7174 209.7839 353.5021 209.1274 350.0751 207.1094 350.7392 198.6744 358.6 189.4371 352.7124 193.5581 341.7902 198.2072 336.2383 205.5665 335.3672 214.78 337.6993 214.3619 344.1317 221.9839 344.1317 222.7062 337.6993L210.9447 316.7331 235.7461 306.5057V311.108L243.161 325.8488C245.6331 329.7022 251.9952 328.3682 250.5759 321.8468 245.9897 313.1039 261.4992 304.2961 271.542 310.5967 277.5243 318.85 274.945 322.537 268.4738 324.148 263.0829 324.326 261.4785 325.749 263.9716 329.6619 265.25 336.3058 252.8334 337.5028 260.8033 340.2561 267.8774 348.878 274.9516 356.8561 282.0251 361.7337 288.284 368.1558 296.1153 364.0779 297.2962 358.848 298.2146 354.7797 294.3731 350.0138 287.3945 348.9494 291.6343 340.0965 310.2233 347.7591 309.6391 365.5689 308.9262 382.9 280.8536 392.3569 276.1444 377.5861 274.1788 375.603 272.4914 375.6886 272.7522 377.8418 281.6374 391.3143 285.495 410.0647 284.3263 434.0925Z"/>
<path transform="matrix(1,0,0,-1,1,435.5594)" d="M281.3409 425.0727 244.3283 345.0779C243.2633 341.8379 245.4908 341.7471 246.7162 343.0879 267.7975 368.7038 280.9562 395.7423 281.3409 425.0727Z" fill="#ffffff" fill-rule="evenodd"/>
<path transform="matrix(1,0,0,-1,1,435.5594)" stroke-width=".216" stroke-linecap="butt" stroke-miterlimit="22.925585" stroke-linejoin="miter" fill="none" stroke="#bcbec0" d="M281.3409 425.0727 244.3283 345.0779C243.2633 341.8379 245.4908 341.7471 246.7162 343.0879 267.7975 368.7038 280.9562 395.7423 281.3409 425.0727Z"/>
<path transform="matrix(1,0,0,-1,1,435.5594)" d="M250.092 339.7068 251.2372 338.1321C256.6208 340.4409 274.4697 364.5439 283.1743 368.6156 293.04 373.2304 300.7233 368.2967 302.1985 353.0197 312.3145 370.5313 295.9951 386.4685 281.5849 378.5003 271.0871 374.1579 263.1662 348.6297 250.092 339.7068Z" fill="#ffffff" fill-rule="evenodd"/>
<path transform="matrix(1,0,0,-1,1,435.5594)" stroke-width=".216" stroke-linecap="butt" stroke-miterlimit="22.925585" stroke-linejoin="miter" fill="none" stroke="#bcbec0" d="M250.092 339.7068 251.2372 338.1321C256.6208 340.4409 274.4697 364.5439 283.1743 368.6156 293.04 373.2304 300.7233 368.2967 302.1985 353.0197 312.3145 370.5313 295.9951 386.4685 281.5849 378.5003 271.0871 374.1579 263.1662 348.6297 250.092 339.7068Z"/>
</g>
</svg>
